# xmcd
#
# Track frame offsets: 
#        150
#        13952
#        26136
#        38387
#        49124
#        68316
#        85798
#        97945
#        111400
#        124223
#        137751
#        149876
#        162874
#        174870
#        188460
#        202256
#        214143
#        226387
#
# Disc length: 3175 seconds
#
# Revision: 1
# Processed by: cddbd v1.5.2PL0 Copyright (c) Steve Scherf et al.
# Submitted via: ExactAudioCopy v0.99pb4
#
DISCID=f80c6512
DTITLE=Howlin' Wolf - Moanin' at Midnight
DYEAR=2002
DGENRE=Blues
TTITLE0=Riding In The Moonlight
TTITLE1=Moaning At Midnight
TTITLE2=Dog Me Around
TTITLE3=Keep What You Got
TTITLE4=House Rockin' Boogie
TTITLE5=Crying At Daybreak
TTITLE6=Passing By Blues
TTITLE7=My Baby Stole Off
TTITLE8=I Want Your Picture
TTITLE9=Worried About My Baby
TTITLE10=Brown Skin Woman
TTITLE11=Driving This Highway
TTITLE12=The Sun Is Rising
TTITLE13=My Friends
TTITLE14=I'm The Wolf
TTITLE15=Riding In The Moonlight
TTITLE16=Choclate Drop
TTITLE17=Riding In The Moonlight
EXTD=YEAR: 2002
EXTT0=
EXTT1=
EXTT2=
EXTT3=
EXTT4=
EXTT5=
EXTT6=
EXTT7=
EXTT8=
EXTT9=
EXTT10=
EXTT11=
EXTT12=
EXTT13=
EXTT14=
EXTT15=
EXTT16=
EXTT17=
PLAYORDER=
